<svg xmlns="http://www.w3.org/2000/svg" viewBox="0 0 704.86 293.12">
    <path d="M171.09,166H58.59v76.17h132v47.07H0V4.83H190.23V52.29H58.59v67.78h112.5Z" fill="#f1f1ff" />
    <path
        d="M450,253.27q-15.83,18.94-44.73,29.4t-64.06,10.45q-36.91,0-64.75-16.12t-43-46.78Q218.35,199.56,218,158.15V138.82q0-42.58,14.35-73.73t41.41-47.66q27-16.5,63.38-16.5,50.58,0,79.1,24.12T450,95.26H393q-3.92-24.41-17.29-35.74T338.87,48.19q-29.88,0-45.51,22.46t-15.82,66.8v18.16q0,44.73,17,67.58T344.34,246q33,0,47.07-14.06V183H338.09V139.79H450Z"
        fill="#f1f1ff" />
    <path
        d="M524.42,1.73c-5.84-1-11.95-.25-17.94-.24-2.69,0-3.69,1.39-3.58,4,.24,5.63.29,11.26.45,16.89,0,1.23.19,2.46.36,4.55,2-1.22,3.3-2,4.64-2.85,4.6-2.77,9-5.95,13.86-8.17s10.36-3.56,15.54-5.33c.71-.25,1.67-.73,1.84-1.3a2.27,2.27,0,0,0-.85-2C534,5.27,529.37,2.54,524.42,1.73Z"
        fill="#f1f1ff" />
    <path
        d="M694.74,50a67.28,67.28,0,0,1-9.18-10.48,76.15,76.15,0,0,0-24.77-22.6c-17.7-10.09-37.25-14-57.28-15.18C589.93.88,576.28,1.23,562.67,1A38,38,0,0,1,556.93,0H553.4c-1,2.41-.06,3.78,2.15,5.07,4.66,2.71,9.17,5.69,13.62,8.73,1.42,1,2.48,2.48,4.29,4.35a30.59,30.59,0,0,1-4.66,1.06c-5.62.23-11.25.34-16.88.49A76.56,76.56,0,0,0,526,25.42c-.81.31-2,1.62-1.84,2a3.77,3.77,0,0,0,2.22,2.17c2.72.68,5.6.75,8.29,1.51,3.48,1,6.83,2.41,10.24,3.65l-.18,1.32a35.82,35.82,0,0,1-3.67,1.57c-12.53,3.79-24.68,8.33-34.39,17.58-1.06,1-1.53,2.62-2.27,4a41.49,41.49,0,0,0,4.4.7c3.93.23,7.89.06,11.76.59,2.1.28,2.89,1.74.88,3.71-3.09,3.05-6,6.27-8.92,9.49-9.17,10.17-17,21.26-22.38,33.91a20.93,20.93,0,0,0-.84,4.39,4.43,4.43,0,0,0,2.81-1c7.26-6.3,14.35-12.82,21.8-18.9a257.54,257.54,0,0,1,65.81-39.35c10.41-4.25,21.44-7.21,32.42-9.81,8.82-2.09,18-3,27-3.95,3-.32,3.36-1.58,2.91-3.82C641.82,34,641,33,640.74,31.91c-.32-1.58-1-3.93-.28-4.66.91-.9,3.28-1,4.76-.53A30.23,30.23,0,0,1,659.48,36a27.24,27.24,0,0,1,2,3.11c-1.19.6-2.31,1.54-3.56,1.75a212.05,212.05,0,0,0-43.32,11.82,219.61,219.61,0,0,0-40.85,21.62,266,266,0,0,0-40.13,33.08A300.19,300.19,0,0,0,497,151.82a15.31,15.31,0,0,0-1.22,3.22l1,.72,4.28-3.7c10.11-8.74,20-17.82,30.4-26.14a246.83,246.83,0,0,1,46.21-28.64,227.81,227.81,0,0,1,21.89-9.5,244.67,244.67,0,0,1,23.5-7,170.22,170.22,0,0,1,23-4.61c8.12-.87,16.38-.51,24.58-.57a12.65,12.65,0,0,1,4.09,1c10.33,3.65,17.45,10.71,21.93,20.61a12,12,0,0,0,2.16,2.5,17.4,17.4,0,0,0,2.15-2.9c2.77-5.93,3.65-12.22,3.87-18.75C705.19,67.29,703,57.67,694.74,50Z"
        fill="#f1f1ff" />
    <path
        d="M696.91,123.06a11.26,11.26,0,0,1-2.16-2.51c-4.48-9.9-11.61-17-21.93-20.6a12.39,12.39,0,0,0-4.09-1c-8.2,0-16.46-.3-24.58.57l-.51.06a52.13,52.13,0,0,1,2.08,15.09q0,18.66-11.21,28.69t-32.54,10H553.91v-21a225.39,225.39,0,0,0-24.38,16.85c-10.1,8.06-19.64,16.81-29.41,25.28V289h53.79V197h47.16q46.44,0,72.71-22.14,25-21.08,26.2-56.87c-.28.73-.59,1.45-.92,2.17A18,18,0,0,1,696.91,123.06Z"
        fill="#f1f1ff" />
</svg>