<?xml version="1.0" standalone="no"?>
<!DOCTYPE svg PUBLIC "-//W3C//DTD SVG 20010904//EN"
 "http://www.w3.org/TR/2001/REC-SVG-20010904/DTD/svg10.dtd">
<svg version="1.0" xmlns="http://www.w3.org/2000/svg"
 width="1000.000000pt" height="1000.000000pt" viewBox="0 0 1000.000000 1000.000000"
 preserveAspectRatio="xMidYMid meet">
<metadata>
Created by potrace 1.14, written by Peter Selinger 2001-2017
</metadata>
<g transform="translate(0.000000,1000.000000) scale(0.100000,-0.100000)"
fill="#000000" stroke="none">
<path d="M1890 9575 c-713 -98 -1272 -638 -1402 -1356 l-23 -124 0 -3090 0
-3090 23 -124 c131 -723 691 -1261 1411 -1357 158 -21 6144 -21 6302 0 631 84
1148 511 1350 1116 21 64 48 169 59 234 20 117 20 157 20 3221 0 3064 0 3104
-20 3221 -121 707 -692 1254 -1409 1350 -151 20 -6164 19 -6311 -1z m2485
-1536 c24 -7 240 -14 535 -19 322 -5 549 -14 650 -24 404 -41 714 -121 1007
-261 296 -141 506 -313 699 -572 48 -65 138 -170 199 -233 61 -63 127 -142
147 -175 44 -73 83 -186 99 -286 15 -95 6 -348 -16 -449 -20 -91 -69 -211 -95
-235 -19 -17 -21 -17 -39 -1 -11 10 -38 53 -60 96 -100 192 -254 329 -461 410
-110 43 -556 35 -838 -15 -289 -51 -727 -173 -974 -271 -373 -148 -748 -342
-1083 -562 -289 -189 -430 -301 -903 -716 -145 -127 -269 -232 -276 -234 -67
-15 24 138 268 453 299 386 698 796 1051 1081 701 566 1413 906 2228 1064 138
26 207 49 207 67 0 3 -9 21 -21 39 -83 135 -382 289 -443 229 -21 -21 -15 -74
15 -144 22 -51 24 -80 6 -105 -11 -14 -50 -22 -212 -41 -268 -31 -364 -48
-600 -107 -366 -91 -624 -186 -975 -359 -514 -253 -899 -518 -1429 -984 -190
-167 -254 -215 -268 -201 -14 13 26 129 81 239 129 255 286 468 567 769 60 64
109 123 109 131 0 31 -30 38 -202 47 -165 8 -208 14 -208 29 1 25 56 95 115
144 141 119 338 219 604 307 179 59 203 70 199 88 -5 23 -194 89 -319 111
-117 21 -152 39 -147 75 4 29 87 68 223 105 177 49 273 61 555 72 146 5 282
14 304 20 l39 10 -44 46 c-44 45 -185 144 -309 218 -91 53 -110 73 -110 110 0
17 3 35 7 38 10 10 73 8 118 -4z m-710 -49 c39 -12 116 -44 173 -71 98 -46
103 -50 100 -76 -3 -27 -10 -30 -173 -84 -210 -68 -256 -91 -470 -224 l-170
-106 -6 32 c-4 17 -9 141 -10 275 -3 189 -1 246 9 256 19 19 108 26 302 24
150 -3 185 -6 245 -26z m3321 -2229 c216 -75 376 -216 482 -426 16 -33 39 -69
51 -79 21 -19 22 -19 37 0 8 10 24 37 34 59 l20 40 0 -33 c0 -58 -21 -224 -41
-327 -142 -708 -692 -1216 -1499 -1385 -284 -59 -340 -63 -1097 -67 l-703 -5
0 -1049 0 -1049 -615 0 -615 0 0 1309 0 1310 163 143 c456 404 765 644 1020
792 l47 28 0 -242 0 -241 648 4 c702 4 729 6 902 63 275 92 462 299 522 578
27 127 27 365 0 491 -11 50 -18 92 -15 95 8 9 176 17 378 18 195 2 202 1 281
-27z"/>
</g>
</svg>
